<svg id="Layer_1_1_" enable-background="new 0 0 64 64" height="512" viewBox="0 0 64 64" width="512" xmlns="http://www.w3.org/2000/svg"><path d="m3 46v-8c0-1.1.9-2 2-2h6c1.1 0 2 .9 2 2v6l4 4h-12c-1.1 0-2-.9-2-2z" fill="#ffe5ca"/><path d="m52 21h-2v-1c0-8.822-7.178-16-16-16h-4c-8.822 0-16 7.178-16 16v1h-2v-1c0-9.925 8.075-18 18-18h4c9.925 0 18 8.075 18 18z" fill="#68607c"/><path d="m16 32h-4c-1.1 0-2-.9-2-2v-8c0-1.1.9-2 2-2h1 3v3 2 4 2z" fill="#91cbd7"/><path d="m14 20h4v12h-4z" fill="#4e9bb9"/><path d="m54 22v8c0 1.1-.9 2-2 2h-4v-1-2-4-2-3h3 1c1.1 0 2 .9 2 2z" fill="#91cbd7"/><path d="m46 20h4v12h-4z" fill="#4e9bb9"/><path d="m32 47c-8.837 0-16-7.163-16-16v-8c0-8.837 7.163-16 16-16 8.837 0 16 7.163 16 16v8c0 8.837-7.163 16-16 16z" fill="#91cbd7"/><path d="m32 7c-4.266 0-8.132 1.68-11 4.401v6.599c0 6.075 4.925 11 11 11s11-4.925 11-11v-6.599c-2.868-2.721-6.734-4.401-11-4.401z" fill="#ffe5ca"/><path d="m38 49 17 5v7h-46v-7l17-5z" fill="#91cbd7"/><path d="m61 54v7h-6v-7c0-1.66 1.34-3 3-3s3 1.34 3 3z" fill="#4e9bb9"/><path d="m9 54v7h-6v-7c0-1.66 1.34-3 3-3s3 1.34 3 3z" fill="#4e9bb9"/><path d="m26 45.83c1.85.76 3.88 1.17 6 1.17s4.15-.41 6-1.17v3.17c-3.63 2.42-8.37 2.42-12 0z" fill="#4e9bb9"/><path d="m47 41h-12v-2h12c1.654 0 3-1.346 3-3v-4h2v4c0 2.757-2.243 5-5 5z" fill="#68607c"/><path d="m37 40v1c0 1.1-.9 2-2 2h-6c-1.1 0-2-.9-2-2v-2c0-1.1.9-2 2-2h6c1.1 0 2 .9 2 2z" fill="#ed6571"/><path d="m49 61v-8.765l-2-.588v3.353h-5v-4.824l-2-.588v11.412h2v-4h5v4z" fill="#4e9bb9"/><path d="m24 61v-11.412l-2 .588v4.824h-5v-3.353l-2 .588v8.765h2v-4h5v4z" fill="#4e9bb9"/><g fill="#68607c"><path d="m38 12h2v2h-2z"/><path d="m38 16h2v4h-2z"/><path d="m42 30h6v-1-1h-6z"/><path d="m48 25v-1h-4v2h4z"/><path d="m22 28h-6v1 1h6z"/><path d="m40 32v2h7.715c.062-.33.114-.663.155-1 .045-.332.078-.665.099-1z"/><path d="m20 24h-4v1 1h4z"/><path d="m24 32h-7.969c.021.335.054.668.099 1 .042.337.096.67.158 1h7.712z"/><path d="m6 39h4v2h-4z"/><path d="m6 43h4v2h-4z"/><path d="m31 56h2v2h-2z"/><path d="m35 56h2v2h-2z"/><path d="m27 56h2v2h-2z"/></g></svg>