<?xml version="1.0"?>
<svg xmlns="http://www.w3.org/2000/svg" height="512px" viewBox="0 0 464 464" width="512px"><g><path d="m328 0h16v32h-16zm0 0" data-original="#000000" class="active-path" data-old_color="#000000" fill="#FFFFFF"/><path d="m245.492188 40.804688 11.3125-11.3125 22.628906 22.628906-11.3125 11.3125zm0 0" data-original="#000000" class="active-path" data-old_color="#000000" fill="#FFFFFF"/><path d="m424 112h40v16h-40zm0 0" data-original="#000000" class="active-path" data-old_color="#000000" fill="#FFFFFF"/><path d="m392.570312 52.132812 22.628907-22.628906 11.3125 11.3125-22.628907 22.628906zm0 0" data-original="#000000" class="active-path" data-old_color="#000000" fill="#FFFFFF"/><path d="m264 240c0 4.417969-3.582031 8-8 8s-8-3.582031-8-8 3.582031-8 8-8 8 3.582031 8 8zm0 0" data-original="#000000" class="active-path" data-old_color="#000000" fill="#FFFFFF"/><path d="m328 152h16v40h-16zm0 0" data-original="#000000" class="active-path" data-old_color="#000000" fill="#FFFFFF"/><path d="m336 256c10.414062 0 19.214844-6.710938 22.527344-16h-45.046875c3.304687 9.289062 12.101562 16 22.519531 16zm0 0" data-original="#000000" class="active-path" data-old_color="#000000" fill="#FFFFFF"/><path d="m304 120c-4.417969 0-8 3.59375-8 8s3.582031 8 8 8h8v-8c0-4.40625-3.585938-8-8-8zm0 0" data-original="#000000" class="active-path" data-old_color="#000000" fill="#FFFFFF"/><path d="m312 208h48v16h-48zm0 0" data-original="#000000" class="active-path" data-old_color="#000000" fill="#FFFFFF"/><path d="m300.023438 182.335938c3.992187 2.304687 7.066406 5.71875 9.136718 9.664062h2.839844v-40h-8c-13.230469 0-24-10.769531-24-24s10.769531-24 24-24 24 10.769531 24 24v8h16v-8c0-13.230469 10.769531-24 24-24s24 10.769531 24 24-10.769531 24-24 24h-8v40h2.863281c2.089844-3.960938 5.183594-7.382812 9.191407-9.710938 22.167968-12.855468 35.945312-36.730468 35.945312-62.289062 0-20.449219-8.742188-40-23.992188-53.65625-13.375-11.984375-30.144531-18.34375-47.910156-18.34375-2.761718 0-5.539062.152344-8.335937.464844-32.144531 3.550781-58.65625 29.328125-63.058594 61.277344-4.03125 29.363281 9.824219 57.859374 35.320313 72.59375zm0 0" data-original="#000000" class="active-path" data-old_color="#000000" fill="#FFFFFF"/><path d="m376 128c0-4.40625-3.585938-8-8-8-4.417969 0-8 3.59375-8 8v8h8c4.414062 0 8-3.59375 8-8zm0 0" data-original="#000000" class="active-path" data-old_color="#000000" fill="#FFFFFF"/><path d="m160 160c0 4.417969-3.582031 8-8 8s-8-3.582031-8-8 3.582031-8 8-8 8 3.582031 8 8zm0 0" data-original="#000000" class="active-path" data-old_color="#000000" fill="#FFFFFF"/><path d="m387.40625 191.199219c-2.375 1.722656-4.757812 3.441406-7.328125 4.929687-2.558594 1.480469-4.078125 4.070313-4.078125 6.917969v28.953125c0 19.3125-13.769531 35.472656-32 39.191406v24.808594h17.472656c3.3125-9.289062 12.109375-16 22.527344-16 13.230469 0 24 10.769531 24 24s-10.769531 24-24 24c-10.417969 0-19.214844-6.710938-22.527344-16h-33.472656v-16h-48v-16h48v-8.808594c-18.230469-3.71875-32-19.871094-32-39.191406v-28.992188c0-2.785156-1.519531-5.398437-3.984375-6.824218-12.28125-7.09375-22.304687-16.832032-29.703125-28.183594h-46.3125v48h-80v-16h64v-32h-25.472656c-3.3125 9.289062-12.113282 16-22.527344 16-13.230469 0-24-10.769531-24-24s10.769531-24 24-24c10.414062 0 19.214844 6.710938 22.527344 16h79.542968c-4.566406-11.703125-6.65625-24.449219-5.878906-37.480469-17.925781-5.351562-38.320312-1.328125-52.734375 11.121094l-4.167969 3.597656-4.839843-2.605469c-8.097657-4.335937-17.242188-6.632812-26.449219-6.632812-26.191406 0-49.207031 18.566406-54.71875 44.160156l-1.800781 8.335938-8.199219-2.328125c-5.082031-1.441407-10.21875-2.167969-15.28125-2.167969-30.871094 0-56 25.121094-56 56 0 2.886719.28125 5.945312.847656 9.34375l.671875 4-2.832031 2.902344c-18.03125 18.53125-25.871094 43.945312-21.503906 69.722656 5.695312 33.703125 33.390625 60.527344 67.34375 65.230469 18.496094 2.5625 36.578125-1.0625 52.34375-10.472657l6.601562-3.933593 4.199219 6.4375c13.382813 20.523437 35.929687 32.769531 60.328125 32.769531h.183594c11.128906 0 21.199218 4.097656 28.6875 11.550781 7.175781 7.144531 11.128906 16.65625 11.128906 26.785157v25.664062h16.023438c.792968-33.703125 19.351562-64.953125 50-83.921875 5.214843-3.222656 10.066406-7.0625 14.417968-11.390625l2.933594-2.925781 4.089844.710937c5.902344 1.03125 11.3125 1.527344 16.535156 1.527344 52.9375 0 96-43.0625 96-96 0-32.832031-17.039062-63.238281-44.59375-80.800781zm-283.40625 8.800781h16v16h-16zm-72 96h-16v-16h16zm64 32h-16v-16h16zm176 40c-10.417969 0-19.214844-6.710938-22.527344-16h-97.472656v-24h-40v-16h40v-64h-16v48h-88v-16h72v-32h-33.472656c-3.3125 9.289062-12.113282 16-22.527344 16-13.230469 0-24-10.769531-24-24s10.769531-24 24-24c10.414062 0 19.214844 6.710938 22.527344 16h146.953125c3.3125-9.289062 12.113281-16 22.527343-16 13.230469 0 24 10.769531 24 24s-10.769531 24-24 24c-10.414062 0-19.214843-6.710938-22.527343-16h-33.480469v32h32v16h-48v-48h-16v88h81.472656c3.3125-9.289062 12.109375-16 22.527344-16 13.230469 0 24 10.769531 24 24s-10.769531 24-24 24zm-8-88v16h-16v-16zm0 0" data-original="#000000" class="active-path" data-old_color="#000000" fill="#FFFFFF"/><path d="m392 304c0 4.417969-3.582031 8-8 8s-8-3.582031-8-8 3.582031-8 8-8 8 3.582031 8 8zm0 0" data-original="#000000" class="active-path" data-old_color="#000000" fill="#FFFFFF"/><path d="m72 240c0 4.417969-3.582031 8-8 8s-8-3.582031-8-8 3.582031-8 8-8 8 3.582031 8 8zm0 0" data-original="#000000" class="active-path" data-old_color="#000000" fill="#FFFFFF"/><path d="m280 344c0 4.417969-3.582031 8-8 8s-8-3.582031-8-8 3.582031-8 8-8 8 3.582031 8 8zm0 0" data-original="#000000" class="active-path" data-old_color="#000000" fill="#FFFFFF"/></g> </svg>
