<?xml version="1.0"?>
<svg xmlns="http://www.w3.org/2000/svg" height="512px" viewBox="0 0 496.0016 496" width="512px" class=""><g><path d="m403.121094 197.441406c-3.441406 2.878906-7.121094 5.519532-11.039063 7.757813-4.082031 2.402343-6.960937 6.320312-7.761719 10.882812-.238281.957031-.320312 1.917969-.320312 2.957031v28.960938c0 17.679688-14.320312 32-32 32s-32-14.320312-32-32v-28.960938c0-1.039062-.078125-2-.320312-2.957031-.796876-4.480469-3.597657-8.480469-7.679688-10.800781-26.796875-15.519531-43.839844-46.242188-39.199219-80.320312h-.160156c-7.597656-3.199219-15.917969-4.960938-24.640625-4.960938-16 0-30.558594 5.921875-41.757812 15.601562-9.039063-4.878906-19.28125-7.601562-30.242188-7.601562-30.71875 0-56.320312 21.601562-62.558594 50.480469-5.519531-1.601563-11.359375-2.480469-17.441406-2.480469-35.359375 0-64 28.640625-64 64 0 3.679688.402344 7.199219.960938 10.640625-13.519532 13.839844-22.480469 32.160156-24.558594 52.558594-.722656 7.761719-.480469 15.839843.878906 24.082031 6.320312 37.199219 36.878906 66.71875 74.160156 71.839844 21.121094 2.960937 41.039063-1.679688 57.519532-11.519532 14.320312 21.917969 38.960937 36.398438 67.039062 36.398438h.320312c17.28125-.078125 31.679688 13.039062 31.679688 30.320312v33.679688h32v-5.757812c0-32.882813 18.320312-62.082032 46.242188-79.363282 5.757812-3.597656 11.039062-7.757812 15.839843-12.558594 5.839844 1.039063 11.757813 1.679688 17.917969 1.679688 57.441406 0 104-46.558594 104-104 0-38.878906-21.277344-72.71875-52.878906-90.558594zm0 0" fill="#e6e9ed" data-original="#E6E9ED" class=""/><g fill="#ffc729"><path d="m304 360c0 8.835938-7.160156 16-16 16-8.835938 0-16-7.164062-16-16s7.164062-16 16-16c8.839844 0 16 7.164062 16 16zm0 0" data-original="#FFC729" class="active-path" style="fill:#FFF39D" data-old_color="#FFC729"/><path d="m416 320c0 8.835938-7.160156 16-16 16-8.835938 0-16-7.164062-16-16s7.164062-16 16-16c8.839844 0 16 7.164062 16 16zm0 0" data-original="#FFC729" class="active-path" style="fill:#FFF39D" data-old_color="#FFC729"/><path d="m288 256c0 8.835938-7.160156 16-16 16-8.835938 0-16-7.164062-16-16s7.164062-16 16-16c8.839844 0 16 7.164062 16 16zm0 0" data-original="#FFC729" class="active-path" style="fill:#FFF39D" data-old_color="#FFC729"/><path d="m96 256c0 8.835938-7.160156 16-16 16-8.835938 0-16-7.164062-16-16s7.164062-16 16-16c8.839844 0 16 7.164062 16 16zm0 0" data-original="#FFC729" class="active-path" style="fill:#FFF39D" data-old_color="#FFC729"/><path d="m184 176c0 8.835938-7.160156 16-16 16-8.835938 0-16-7.164062-16-16s7.164062-16 16-16c8.839844 0 16 7.164062 16 16zm0 0" data-original="#FFC729" class="active-path" style="fill:#FFF39D" data-old_color="#FFC729"/></g><path d="m384 216h-64l-.320312.082031c.242187.957031.320312 31.917969.320312 31.917969 0 17.679688 14.320312 32 32 32s32-14.320312 32-32c0 0 .082031-30.960938.320312-31.917969zm0 0" fill="#cf9e76" data-original="#CF9E76" class="" style="fill:#FB5252" data-old_color="#cf9e76"/><path d="m342.882812 56.480469c-35.761718 4-65.203124 32.480469-70.082031 68.160156v.320313c-4.640625 34.078124 12.402344 64.800781 39.199219 80.320312 4.082031 2.320312 6.882812 6.320312 7.679688 10.800781l.320312-.082031h64l.320312.082031c.800782-4.5625 3.679688-8.480469 7.761719-10.882812 3.917969-2.238281 7.597657-4.878907 11.039063-7.757813 17.601562-14.640625 28.878906-36.71875 28.878906-61.441406 0-47.199219-40.878906-84.800781-89.117188-79.519531zm0 0" fill="#ffeaa7" data-original="#FFEAA7" class="" style="fill:#00FF31" data-old_color="#ffeaa7"/><path d="m395.28125 132.722656c2.960938 2.878906 4.71875 6.878906 4.71875 11.277344 0 8.800781-7.199219 16-16 16h-16v-16c0-4.398438 1.761719-8.398438 4.722656-11.277344 2.878906-2.960937 6.878906-4.722656 11.277344-4.722656 4.402344 0 8.402344 1.761719 11.28125 4.722656zm0 0" fill="#ffc729" data-original="#FFC729" class="active-path" style="fill:#FFF39D" data-old_color="#ffc729"/><path d="m336 144v16h-16c-4.398438 0-8.398438-1.757812-11.277344-4.71875-2.960937-2.878906-4.722656-6.878906-4.722656-11.28125 0-4.398438 1.761719-8.398438 4.722656-11.277344 2.878906-2.960937 6.878906-4.722656 11.277344-4.722656 8.800781 0 16 7.199219 16 16zm0 0" fill="#ffc729" data-original="#FFC729" class="active-path" style="fill:#FFF39D" data-old_color="#ffc729"/><path d="m415.96875 196.167969c15.128906-16.121094 24.03125-37.558594 24.03125-60.167969 0-24.992188-10.6875-48.894531-29.320312-65.574219-18.605469-16.671875-43.636719-24.640625-68.6875-21.863281-36.222657 4.007812-66.558594 31.125-75.320313 65.957031-20.855469-5.503906-44-1.300781-61.496094 11.671875-9.140625-4.0625-19.125-6.191406-29.175781-6.191406-30.957031 0-58.46875 20.175781-68.207031 49-3.933594-.664062-7.878907-1-11.792969-1-39.703125 0-72 32.304688-72 72 0 2.585938.167969 5.234375.496094 8.015625-19.679688 21.9375-28.078125 51.097656-23.085938 80.625 6.847656 40.519531 40.136719 72.761719 80.933594 78.417969 19.625 2.71875 38.921875-.402344 56.242188-9.035156 16.640624 21.402343 42.105468 33.976562 69.792968 33.976562h.117188c6.5625 0 12.632812 2.449219 17.097656 6.898438 4.144531 4.117187 6.414062 9.597656 6.414062 15.445312v41.65625h48v-13.757812c0-28.984376 15.867188-56.105469 42.449219-72.5625 5.089844-3.152344 9.871094-6.773438 14.296875-10.816407 5.296875.769531 10.320313 1.136719 15.246094 1.136719 61.761719 0 112-50.238281 112-112 0-36.742188-18.191406-71.015625-48.03125-91.832031zm-135.261719-70.429688c4.398438-31.953125 30.910157-57.722656 63.054688-61.273437 2.792969-.3125 5.574219-.464844 8.335937-.464844 17.777344 0 34.535156 6.367188 47.910156 18.34375 15.25 13.648438 23.992188 33.210938 23.992188 53.65625 0 25.5625-13.773438 49.433594-35.941406 62.289062-4.007813 2.328126-7.105469 5.75-9.191406 9.710938h-2.867188v-40h8c13.234375 0 24-10.765625 24-24 0-13.230469-10.765625-24-24-24-13.230469 0-24 10.769531-24 24v8h-16v-8c0-13.230469-10.765625-24-24-24-13.230469 0-24 10.769531-24 24 0 13.234375 10.769531 24 24 24h8v40h-2.839844c-2.070312-3.941406-5.152344-7.359375-9.132812-9.664062-25.496094-14.734376-39.355469-43.230469-35.320313-72.597657zm71.292969 146.261719c-10.414062 0-19.214844-6.710938-22.527344-16h45.050782c-3.304688 9.289062-12.105469 16-22.523438 16zm24-32h-48v-16h48zm-48-88h-8c-4.414062 0-8-3.589844-8-8 0-4.40625 3.585938-8 8-8 4.417969 0 8 3.59375 8 8zm32 56h-16v-40h16zm16-56v-8c0-4.40625 3.585938-8 8-8 4.417969 0 8 3.59375 8 8 0 4.410156-3.582031 8-8 8zm-24 232c-5.222656 0-10.628906-.496094-16.535156-1.527344l-4.085938-.710937-2.9375 2.925781c-4.351562 4.335938-9.191406 8.167969-14.414062 11.394531-30.648438 18.976563-49.210938 50.214844-50 83.917969h-16.027344v-25.664062c0-10.128907-3.949219-19.640626-11.125-26.78125-7.480469-7.457032-17.5625-11.554688-28.6875-11.554688-.066406 0-.128906 0-.1875 0-24.398438 0-46.941406-12.246094-60.320312-32.765625l-4.199219-6.441406-6.597657 3.9375c-15.769531 9.40625-33.847656 13.03125-52.34375 10.46875-33.953124-4.703125-61.648437-31.519531-67.34375-65.230469-4.363281-25.777344 3.476563-51.191406 21.503907-69.71875l2.832031-2.90625-.671875-4c-.578125-3.398438-.859375-6.453125-.859375-9.34375 0-30.878906 25.128906-56 56-56 5.066406 0 10.203125.730469 15.28125 2.167969l8.199219 2.328125 1.800781-8.335938c5.511719-25.589844 28.527344-44.160156 54.71875-44.160156 9.210938 0 18.355469 2.296875 26.441406 6.632812l4.839844 2.609376 4.167969-3.601563c14.417969-12.449219 34.808593-16.472656 52.738281-11.121094-.777344 13.035157 1.316406 25.777344 5.878906 37.480469h-79.542968c-3.3125-9.289062-12.113282-16-22.53125-16-13.230469 0-24 10.769531-24 24 0 13.234375 10.769531 24 24 24 10.417968 0 19.21875-6.710938 22.53125-16h25.476562v32h-64v16h80v-48h46.3125c7.394531 11.351562 17.425781 21.089844 29.707031 28.183594 2.460938 1.425781 3.980469 4.042968 3.980469 6.824218v28.992188c0 19.3125 13.769531 35.472656 32 39.191406v8.808594h-48v16h48v16h33.472656c3.3125 9.289062 12.113282 16 22.527344 16 13.234375 0 24-10.765625 24-24 0-13.230469-10.765625-24-24-24-10.414062 0-19.214844 6.710938-22.527344 16h-17.472656v-24.808594c18.234375-3.71875 32-19.871094 32-39.191406v-28.953125c0-2.847656 1.523438-5.4375 4.089844-6.917969 2.566406-1.488281 4.953125-3.207031 7.328125-4.929687 27.542969 17.5625 44.582031 47.96875 44.582031 80.800781 0 52.9375-43.0625 96-96 96zm-176-208c0 4.410156-3.582031 8-8 8-4.414062 0-8-3.589844-8-8 0-4.40625 3.585938-8 8-8 4.417969 0 8 3.59375 8 8zm216 144c0-4.40625 3.585938-8 8-8 4.417969 0 8 3.59375 8 8 0 4.410156-3.582031 8-8 8-4.414062 0-8-3.589844-8-8zm0 0" data-original="#000000" class="" style="fill:#0E2A47" data-old_color="#000000"/><path d="m344 0h16v32h-16zm0 0" data-original="#000000" class="" style="fill:#0E2A47" data-old_color="#000000"/><path d="m250.1875 45.5 11.316406-11.3125 22.621094 22.628906-11.3125 11.3125zm0 0" data-original="#000000" class="" style="fill:#0E2A47" data-old_color="#000000"/><path d="m456 128h40v16h-40zm0 0" data-original="#000000" class="" style="fill:#0E2A47" data-old_color="#000000"/><path d="m419.875 56.808594 22.628906-22.628906 11.3125 11.3125-22.628906 22.628906zm0 0" data-original="#000000" class="" style="fill:#0E2A47" data-old_color="#000000"/><path d="m264 296h16v16h-16zm0 0" data-original="#000000" class="" style="fill:#0E2A47" data-old_color="#000000"/><path d="m288 336c-10.414062 0-19.214844 6.710938-22.527344 16h-81.472656v-88h16v48h48v-16h-32v-32h33.472656c3.3125 9.289062 12.113282 16 22.527344 16 13.234375 0 24-10.765625 24-24 0-13.230469-10.765625-24-24-24-10.414062 0-19.214844 6.710938-22.527344 16h-146.941406c-3.3125-9.289062-12.113281-16-22.53125-16-13.230469 0-24 10.769531-24 24 0 13.234375 10.769531 24 24 24 10.417969 0 19.21875-6.710938 22.53125-16h33.46875v32h-72v16h88v-48h16v64h-40v16h40v24h97.472656c3.3125 9.289062 12.113282 16 22.527344 16 13.234375 0 24-10.765625 24-24 0-13.230469-10.765625-24-24-24zm-16-88c4.417969 0 8 3.59375 8 8 0 4.410156-3.582031 8-8 8-4.414062 0-8-3.589844-8-8 0-4.40625 3.585938-8 8-8zm-192 16c-4.414062 0-8-3.589844-8-8 0-4.40625 3.585938-8 8-8 4.417969 0 8 3.59375 8 8 0 4.410156-3.582031 8-8 8zm208 104c-4.414062 0-8-3.589844-8-8 0-4.40625 3.585938-8 8-8 4.417969 0 8 3.59375 8 8 0 4.410156-3.582031 8-8 8zm0 0" data-original="#000000" class="" style="fill:#0E2A47" data-old_color="#000000"/><path d="m32 296h16v16h-16zm0 0" data-original="#000000" class="" style="fill:#0E2A47" data-old_color="#000000"/><path d="m120 216h16v16h-16zm0 0" data-original="#000000" class="" style="fill:#0E2A47" data-old_color="#000000"/><path d="m96 328h16v16h-16zm0 0" data-original="#000000" class="" style="fill:#0E2A47" data-old_color="#000000"/></g> </svg>
