<?xml version="1.0"?>
<svg xmlns="http://www.w3.org/2000/svg" id="Layer_5" enable-background="new 0 0 64 64" height="512px" viewBox="0 0 64 64" width="512px" class=""><g><path d="m14.279 27.995-9.932 8.339c-.856.72-1.347 1.773-1.347 2.892 0 2.081 1.693 3.774 3.774 3.774 1.118 0 2.171-.491 2.891-1.347l8.34-9.932c-1.427-1.042-2.683-2.299-3.726-3.726zm-6.572 11.712-1.414-1.414 1.343-1.343 1.414 1.414zm2.758-2.757-1.414-1.414 1.414-1.414 1.414 1.414zm2.828-2.829-1.414-1.414 1.414-1.414 1.414 1.414z" data-original="#000000" class="active-path" data-old_color="#000000" fill="#FFFFFF"/><path d="m28 29c6.065 0 11-4.935 11-11s-4.935-11-11-11-11 4.935-11 11 4.935 11 11 11zm-3-4h-2v-2h2zm4 0h-2v-2h2zm4 0h-2v-2h2zm-10-14h10v2h-10zm-4 4h18v2h-18zm0 4h18v2h-18z" data-original="#000000" class="active-path" data-old_color="#000000" fill="#FFFFFF"/><path d="m28 33c2.528 0 4.908-.635 7-1.744l.452-.256c4.503-2.591 7.548-7.442 7.548-13 0-8.271-6.729-15-15-15s-15 6.729-15 15 6.729 15 15 15zm0-28c7.168 0 13 5.832 13 13s-5.832 13-13 13-13-5.832-13-13 5.832-13 13-13z" data-original="#000000" class="active-path" data-old_color="#000000" fill="#FFFFFF"/><path d="m33 51h2v6h-2z" data-original="#000000" class="active-path" data-old_color="#000000" fill="#FFFFFF"/><path d="m17 51h2v6h-2z" data-original="#000000" class="active-path" data-old_color="#000000" fill="#FFFFFF"/><path d="m17 39h2v6h-2z" data-original="#000000" class="active-path" data-old_color="#000000" fill="#FFFFFF"/><path d="m38.932 31h18.068c1.103 0 2 .897 2 2v14c0 1.103-.897 2-2 2h-20c-1.103 0-2-.897-2-2v-13.526c-2.138.971-4.503 1.526-7 1.526-3.016 0-5.846-.798-8.305-2.182l-3.787 4.51c.314-.206.689-.328 1.092-.328h2c1.103 0 2 .897 2 2v6c0 1.103-.897 2-2 2h-2c-1.103 0-2-.897-2-2v-6c0-.276.056-.539.158-.779l-2.158 2.57v19.209c0 .551.448 1 1 1h46c.552 0 1-.449 1-1v-31h-20.062c-.613.72-1.282 1.391-2.006 2zm-17.932 26c0 1.103-.897 2-2 2h-2c-1.103 0-2-.897-2-2v-6c0-1.103.897-2 2-2h2c1.103 0 2 .897 2 2zm10-20h2v10h-2zm-6 22h-2v-10h2zm0-12h-2v-10h2zm4 12h-2v-10h2zm0-12h-2v-10h2zm8 10c0 1.103-.897 2-2 2h-2c-1.103 0-2-.897-2-2v-6c0-1.103.897-2 2-2h2c1.103 0 2 .897 2 2zm14 2h-12v-2h12zm4 0h-2v-2h2zm4 0h-2v-2h2zm0-4h-20v-2h20z" data-original="#000000" class="active-path" data-old_color="#000000" fill="#FFFFFF"/><path d="m57 47v-14h-20v14zm-7.545-9.205 1.211-1.591 4.984 3.796-4.984 3.795-1.211-1.591 2.895-2.204zm-2.435-2.991 1.961.393-2 10-1.961-.393zm-3.686 1.401 1.211 1.591-2.895 2.204 2.895 2.205-1.211 1.591-4.984-3.796z" data-original="#000000" class="active-path" data-old_color="#000000" fill="#FFFFFF"/><path d="m60 23h-15.753c-.439 1.425-1.074 2.761-1.851 4h18.604v-3c0-.551-.448-1-1-1z" data-original="#000000" class="active-path" data-old_color="#000000" fill="#FFFFFF"/></g> </svg>
