<?xml version="1.0"?>
<svg xmlns="http://www.w3.org/2000/svg" height="512px" viewBox="-56 0 464 464" width="512px" class=""><g><path d="m288 464h-256c-17.671875 0-32-14.328125-32-32v-368c0-17.671875 14.328125-32 32-32h288v400c0 17.671875-14.328125 32-32 32zm0 0" fill="#428dc5" data-original="#428DC5" class=""/><path d="m320 32h-240l-48 48v336c0 4.417969 3.582031 8 8 8h280zm0 0" fill="#3775a4" data-original="#3775A4"/><path d="m344 408h-288c-4.417969 0-8-3.582031-8-8v-336l64-64h224c8.835938 0 16 7.164062 16 16v384c0 4.417969-3.582031 8-8 8zm0 0" fill="#f0f0f0" data-original="#F0F0F0" class=""/><g fill="#d9d9d9"><path d="m80 352h48v16h-48zm0 0" data-original="#D9D9D9" class="active-path" data-old_color="#D9D9D9" style="fill:#3B4558"/><path d="m160 40h80v16h-80zm0 0" data-original="#D9D9D9" class="active-path" data-old_color="#D9D9D9" style="fill:#3B4558"/><path d="m176 72h48v16h-48zm0 0" data-original="#D9D9D9" class="active-path" data-old_color="#D9D9D9" style="fill:#3B4558"/></g><path d="m104 64h-56l64-64v56c0 4.417969-3.582031 8-8 8zm0 0" fill="#eaeae8" data-original="#EAEAE8" class="" style="fill:#AEA9A9" data-old_color="#eaeae8"/><path d="m320 104h-240c-4.417969 0-8 3.582031-8 8v208c0 4.417969 3.582031 8 8 8h168v24c0 4.417969 3.582031 8 8 8h64c4.417969 0 8-3.582031 8-8v-240c0-4.417969-3.582031-8-8-8zm-8 208h-48v-16h48zm-224-144h32v16h-32zm160 0v16h-112v-16zm64 16h-48v-16h48zm0 32h-48v-16h48zm0 32h-48v-16h48zm-224-16h32v16h-32zm0-32h32v16h-32zm48 0h112v16h-112zm0 32h112v16h-112zm-48 32h32v16h-32zm48 0h112v16h-112zm128 0h48v16h-48zm48-144v32h-224v-32zm-224 192v-16h32v16zm48 0v-16h112v16zm128 32v-16h48v16zm0 0" fill="#d9d9d9" data-original="#D9D9D9" class="active-path" data-old_color="#d9d9d9" style="fill:#3B4558"/></g> </svg>
