<?xml version="1.0"?>
<svg xmlns="http://www.w3.org/2000/svg" id="Layer_3" enable-background="new 0 0 64 64" height="512px" viewBox="0 0 64 64" width="512px"><g><path d="m11 33h4v2h-4z" data-original="#000000" class="active-path" data-old_color="#000000" fill="#FFFFFF"/><path d="m11 41h4v2h-4z" data-original="#000000" class="active-path" data-old_color="#000000" fill="#FFFFFF"/><path d="m11 49h4v2h-4z" data-original="#000000" class="active-path" data-old_color="#000000" fill="#FFFFFF"/><path d="m11 25h4v2h-4z" data-original="#000000" class="active-path" data-old_color="#000000" fill="#FFFFFF"/><path d="m15 13h12v6h-12z" data-original="#000000" class="active-path" data-old_color="#000000" fill="#FFFFFF"/><path d="m35.584 13.063-.046-.063h-6.538v4h7c.553 0 1 .447 1 1v38c0 .553-.447 1-1 1h-30c-.553 0-1-.447-1-1v-38c0-.553.447-1 1-1h7v-4h-10v48h36v-48h-3.32c-.032.022-.065.041-.096.063z" data-original="#000000" class="active-path" data-old_color="#000000" fill="#FFFFFF"/><path d="m41 21.49 1 1.041 1-1.041v-5.49c0-.327.16-.633.428-.82s.61-.231.918-.118c2.784 1.024 4.654 3.769 4.654 6.831 0 2.81-1.581 5.354-4 6.544v4.137c4.61-1.31 8-5.549 8-10.574 0-6.065-4.935-11-11-11-.526 0-1.045.042-1.558.114.328.164.558.494.558.886z" data-original="#000000" class="active-path" data-old_color="#000000" fill="#FFFFFF"/><path d="m47 21.893c0-1.68-.765-3.226-2-4.199v4.199c0 .258-.1.507-.278.692l-2 2.083c-.377.393-1.066.393-1.443 0l-.279-.29v8.574c.332.03.666.048 1 .048.338 0 .67-.021 1-.051v-5.171c0-.419.261-.793.654-.938 2.001-.737 3.346-2.726 3.346-4.947z" data-original="#000000" class="active-path" data-old_color="#000000" fill="#FFFFFF"/><path d="m57.709 20c-.48 0-.893-.342-.982-.813-.386-2.031-1.166-3.92-2.319-5.615-.271-.396-.221-.93.119-1.27l2.323-2.322-2.829-2.83-2.322 2.323c-.339.34-.873.392-1.27.119-1.695-1.153-3.584-1.934-5.615-2.319-.472-.089-.814-.502-.814-.982v-3.291h-4v3.291c0 .48-.342.893-.813.982-2.031.386-3.92 1.166-5.615 2.319-.396.272-.929.221-1.27-.119l-2.323-2.323-2.829 2.829 1.022 1.021h6.909c2.071-1.307 4.445-2 6.919-2 7.168 0 13 5.832 13 13s-5.832 13-13 13c-.334 0-.668-.016-1-.041v6.041h3v-3.291c0-.48.342-.893.813-.982 2.031-.386 3.92-1.166 5.615-2.319.396-.271.93-.221 1.27.119l2.322 2.323 2.829-2.829-2.323-2.322c-.34-.34-.39-.873-.119-1.27 1.153-1.695 1.934-3.584 2.319-5.615.09-.472.503-.814.983-.814h3.291v-4z" data-original="#000000" class="active-path" data-old_color="#000000" fill="#FFFFFF"/><path d="m13 19h-6v36h28v-36h-6v1c0 .553-.447 1-1 1h-14c-.553 0-1-.447-1-1zm4 33c0 .553-.447 1-1 1h-6c-.553 0-1-.447-1-1v-4c0-.553.447-1 1-1h6c.553 0 1 .447 1 1zm0-8c0 .553-.447 1-1 1h-6c-.553 0-1-.447-1-1v-4c0-.553.447-1 1-1h6c.553 0 1 .447 1 1zm0-8c0 .553-.447 1-1 1h-6c-.553 0-1-.447-1-1v-4c0-.553.447-1 1-1h6c.553 0 1 .447 1 1zm2-13h14v2h-14zm0 4h14v2h-14zm0 4h14v2h-14zm0 4h14v2h-14zm0 4h14v2h-14zm0 4h14v2h-14zm0 4h14v2h-14zm0 4h14v2h-14zm-3-28c.553 0 1 .447 1 1v4c0 .553-.447 1-1 1h-6c-.553 0-1-.447-1-1v-4c0-.553.447-1 1-1z" data-original="#000000" class="active-path" data-old_color="#000000" fill="#FFFFFF"/><path d="m53 51.667 5-1.667-5-1.667z" data-original="#000000" class="active-path" data-old_color="#000000" fill="#FFFFFF"/><path d="m40 48h11v4h-11z" data-original="#000000" class="active-path" data-old_color="#000000" fill="#FFFFFF"/><path d="m55 59.667 5-1.667-5-1.667z" data-original="#000000" class="active-path" data-old_color="#000000" fill="#FFFFFF"/><path d="m40 56h13v4h-13z" data-original="#000000" class="active-path" data-old_color="#000000" fill="#FFFFFF"/></g> </svg>
