<?xml version="1.0"?>
<svg xmlns="http://www.w3.org/2000/svg" id="Layer_3" enable-background="new 0 0 64 64" height="512px" viewBox="0 0 64 64" width="512px"><g><path d="m9 24v4c0 .553.447 1 1 1h6c.553 0 1-.447 1-1v-4c0-.553-.447-1-1-1h-6c-.553 0-1 .447-1 1zm2 1h4v2h-4z" data-original="#000000" class="active-path" data-old_color="#000000" fill="#FFFFFF"/><path d="m16 31h-6c-.553 0-1 .447-1 1v4c0 .553.447 1 1 1h6c.553 0 1-.447 1-1v-4c0-.553-.447-1-1-1zm-1 4h-4v-2h4z" data-original="#000000" class="active-path" data-old_color="#000000" fill="#FFFFFF"/><path d="m16 39h-6c-.553 0-1 .447-1 1v4c0 .553.447 1 1 1h6c.553 0 1-.447 1-1v-4c0-.553-.447-1-1-1zm-1 4h-4v-2h4z" data-original="#000000" class="active-path" data-old_color="#000000" fill="#FFFFFF"/><path d="m16 47h-6c-.553 0-1 .447-1 1v4c0 .553.447 1 1 1h6c.553 0 1-.447 1-1v-4c0-.553-.447-1-1-1zm-1 4h-4v-2h4z" data-original="#000000" class="active-path" data-old_color="#000000" fill="#FFFFFF"/><path d="m19 23h14v2h-14z" data-original="#000000" class="active-path" data-old_color="#000000" fill="#FFFFFF"/><path d="m19 27h14v2h-14z" data-original="#000000" class="active-path" data-old_color="#000000" fill="#FFFFFF"/><path d="m19 31h14v2h-14z" data-original="#000000" class="active-path" data-old_color="#000000" fill="#FFFFFF"/><path d="m19 35h14v2h-14z" data-original="#000000" class="active-path" data-old_color="#000000" fill="#FFFFFF"/><path d="m19 39h14v2h-14z" data-original="#000000" class="active-path" data-old_color="#000000" fill="#FFFFFF"/><path d="m19 43h14v2h-14z" data-original="#000000" class="active-path" data-old_color="#000000" fill="#FFFFFF"/><path d="m19 47h14v2h-14z" data-original="#000000" class="active-path" data-old_color="#000000" fill="#FFFFFF"/><path d="m19 51h14v2h-14z" data-original="#000000" class="active-path" data-old_color="#000000" fill="#FFFFFF"/><path d="m62 18h-3.483c-.413-1.724-1.086-3.351-2.005-4.854l2.459-2.459c.188-.188.293-.441.293-.707s-.105-.52-.293-.707l-4.243-4.243c-.375-.375-1.039-.375-1.414 0l-2.459 2.459c-1.504-.92-3.131-1.593-4.855-2.006v-3.483c0-.553-.447-1-1-1h-6c-.553 0-1 .447-1 1v3.483c-1.724.413-3.351 1.086-4.854 2.005l-2.459-2.459c-.188-.188-.441-.293-.707-.293s-.52.105-.707.293l-4.243 4.243c-.188.188-.293.441-.293.707s.105.52.293.707l.313.314h-11.343-12c-.553 0-1 .447-1 1v50c0 .553.447 1 1 1h38c.553 0 1-.447 1-1v-1h13c.107 0 .214-.018.316-.052l6-2c.409-.136.684-.517.684-.948s-.275-.812-.684-.948l-6-2c-.102-.034-.209-.052-.316-.052h-13v-2h11c.107 0 .214-.018.316-.052l6-2c.409-.136.684-.517.684-.948s-.275-.812-.684-.948l-6-2c-.102-.034-.209-.052-.316-.052h-11v-4h4c.553 0 1-.447 1-1v-3.483c1.724-.413 3.351-1.086 4.854-2.005l2.459 2.459c.188.188.441.293.707.293s.52-.105.707-.293l4.243-4.243c.188-.188.293-.441.293-.707s-.105-.52-.293-.707l-2.459-2.459c.919-1.504 1.592-3.131 2.005-4.854h3.484c.553 0 1-.447 1-1v-6c0-.554-.447-1.001-1-1.001zm-48 3h14c.553 0 1-.447 1-1v-1h6v36h-28v-36h6v1c0 .553.447 1 1 1zm13-8v6h-12v-6zm12 48h-36v-48h10v4h-7c-.553 0-1 .447-1 1v38c0 .553.447 1 1 1h30c.553 0 1-.447 1-1v-38c0-.553-.447-1-1-1h-7v-4h10zm2-36.622.278.29c.377.393 1.066.393 1.443 0l2-2.083c.179-.186.279-.435.279-.692v-4.199c1.235.974 2 2.52 2 4.199 0 2.222-1.345 4.21-3.346 4.947-.393.145-.654.519-.654.938v5.171c-.33.03-.662.051-1 .051-.334 0-.668-.018-1-.048zm4 4.059c2.419-1.189 4-3.734 4-6.544 0-3.062-1.87-5.807-4.654-6.831-.308-.113-.65-.068-.918.118-.268.187-.428.493-.428.82v5.49l-1 1.041-1-1.041v-9.49c0-.393-.232-.725-.561-.888.514-.073 1.035-.112 1.561-.112 6.065 0 11 4.935 11 11 0 5.024-3.39 9.263-8 10.574zm10 30.176v-1.225l1.838.612zm-2-1.613v2h-12v-2zm0-6.387v-1.225l1.838.612zm-2-1.613v2h-10v-2zm10-25h-3.291c-.48 0-.893.342-.982.813-.386 2.031-1.166 3.92-2.319 5.615-.271.396-.221.93.119 1.27l2.323 2.322-2.829 2.829-2.322-2.323c-.34-.34-.873-.391-1.27-.119-1.695 1.153-3.584 1.934-5.615 2.319-.472.09-.814.503-.814.983v3.291h-3v-6.041c.332.025.666.041 1 .041 7.168 0 13-5.832 13-13s-5.832-13-13-13c-2.463 0-4.845.695-6.917 2h-6.911l-1.022-1.021 2.829-2.829 2.322 2.323c.341.34.873.392 1.27.119 1.695-1.153 3.584-1.934 5.615-2.319.472-.089.814-.502.814-.982v-3.291h4v3.291c0 .48.342.893.813.982 2.031.386 3.92 1.166 5.615 2.319.396.272.931.221 1.27-.119l2.322-2.323 2.829 2.829-2.323 2.322c-.34.34-.39.873-.119 1.27 1.153 1.695 1.934 3.584 2.319 5.615.09.472.503.814.983.814h3.291z" data-original="#000000" class="active-path" data-old_color="#000000" fill="#FFFFFF"/></g> </svg>
