<?xml version="1.0"?>
<svg xmlns="http://www.w3.org/2000/svg" id="Layer_5" enable-background="new 0 0 64 64" height="512px" viewBox="0 0 64 64" width="512px" class=""><g><g><path d="m50.414 1h-43.414v4h-1c-2.757 0-5 2.243-5 5v20c0 2.757 2.243 5 5 5h1v28h56v-49.414zm.586 3.414 8.586 8.586h-8.586zm-38 8.586v-10h2v10zm-2-10v10h-2v-10zm-5 4h1v6h-1c-1.654 0-3-1.346-3-3s1.346-3 3-3zm-3 23v-16.002c.836.628 1.875 1.002 3 1.002h30c1.654 0 3 1.346 3 3v12c0 1.654-1.346 3-3 3h-30c-1.654 0-3-1.346-3-3zm36.974 3h16.026c.551 0 1 .449 1 1v2c0 .551-.449 1-1 1h-20c-.551 0-1-.449-1-1v-1h1c1.627 0 3.061-.793 3.974-2zm16.026 20c.551 0 1 .449 1 1v2c0 .551-.449 1-1 1h-20c-.551 0-1-.449-1-1v-2c0-.551.449-1 1-1zm-18-2v-2h16v2zm-2-4c-.551 0-1-.449-1-1v-2c0-.551.449-1 1-1h20c.551 0 1 .449 1 1v2c0 .551-.449 1-1 1zm2-6v-2h16v2zm-23-6v26h-2v-26zm-6 0h2v26h-2zm8 26v-26h16v1c0 1.654 1.346 3 3 3v2c-1.654 0-3 1.346-3 3v2c0 1.654 1.346 3 3 3v2c-1.654 0-3 1.346-3 3v2c0 1.654 1.346 3 3 3h20c1.654 0 3-1.346 3-3v-2c0-1.654-1.346-3-3-3v-2c1.654 0 3-1.346 3-3v-2c0-1.654-1.346-3-3-3v-2c1.654 0 3-1.346 3-3v-2c0-1.654-1.346-3-3-3h-15.101c.066-.323.101-.658.101-1v-12c0-2.757-2.243-5-5-5h-19v-10h32v12h12v46z" data-original="#000000" class="active-path" data-old_color="#000000" fill="#FFFFFF"/><path d="m15 20.906c0-2.154-1.752-3.906-3.906-3.906h-.188c-2.154 0-3.906 1.752-3.906 3.906 0 1.684 1.073 3.172 2.67 3.705l2.026.676c.78.26 1.303.986 1.303 1.808.001 1.05-.854 1.905-1.905 1.905h-.188c-1.051 0-1.906-.855-1.906-1.906v-1.094h-2v1.094c0 2.154 1.752 3.906 3.906 3.906h.188c2.154 0 3.906-1.752 3.906-3.906 0-1.684-1.073-3.172-2.67-3.705l-2.026-.676c-.781-.259-1.304-.986-1.304-1.807 0-1.051.855-1.906 1.906-1.906h.188c1.051 0 1.906.855 1.906 1.906v.094z" data-original="#000000" class="active-path" data-old_color="#000000" fill="#FFFFFF"/><path d="m27 26v-4c0-2.757-2.243-5-5-5s-5 2.243-5 5v4c0 2.757 2.243 5 5 5 1.017 0 1.962-.309 2.753-.833l1.54 1.54 1.414-1.414-1.54-1.54c.524-.791.833-1.736.833-2.753zm-5 3c-1.654 0-3-1.346-3-3v-4c0-1.654 1.346-3 3-3s3 1.346 3 3v4c0 1.654-1.346 3-3 3z" data-original="#000000" class="active-path" data-old_color="#000000" fill="#FFFFFF"/><path d="m31 17h-2v14h6v-2h-4z" data-original="#000000" class="active-path" data-old_color="#000000" fill="#FFFFFF"/><path d="m19 11h6v-6h-6zm2-4h2v2h-2z" data-original="#000000" class="active-path" data-old_color="#000000" fill="#FFFFFF"/><path d="m27 11h6v-6h-6zm2-4h2v2h-2z" data-original="#000000" class="active-path" data-old_color="#000000" fill="#FFFFFF"/><path d="m35 11h6v-6h-6zm2-4h2v2h-2z" data-original="#000000" class="active-path" data-old_color="#000000" fill="#FFFFFF"/><path d="m19 37h2v2h-2z" data-original="#000000" class="active-path" data-old_color="#000000" fill="#FFFFFF"/><path d="m23 37h8v2h-8z" data-original="#000000" class="active-path" data-old_color="#000000" fill="#FFFFFF"/><path d="m19 41h12v2h-12z" data-original="#000000" class="active-path" data-old_color="#000000" fill="#FFFFFF"/><path d="m19 45h12v2h-12z" data-original="#000000" class="active-path" data-old_color="#000000" fill="#FFFFFF"/><path d="m19 49h12v2h-12z" data-original="#000000" class="active-path" data-old_color="#000000" fill="#FFFFFF"/><path d="m19 53h2v2h-2z" data-original="#000000" class="active-path" data-old_color="#000000" fill="#FFFFFF"/><path d="m23 53h8v2h-8z" data-original="#000000" class="active-path" data-old_color="#000000" fill="#FFFFFF"/><path d="m19 57h12v2h-12z" data-original="#000000" class="active-path" data-old_color="#000000" fill="#FFFFFF"/><path d="m43 17h16v2h-16z" data-original="#000000" class="active-path" data-old_color="#000000" fill="#FFFFFF"/><path d="m43 21h16v2h-16z" data-original="#000000" class="active-path" data-old_color="#000000" fill="#FFFFFF"/><path d="m43 25h15v2h-15z" data-original="#000000" class="active-path" data-old_color="#000000" fill="#FFFFFF"/></g></g> </svg>
