<?xml version="1.0"?>
<svg xmlns="http://www.w3.org/2000/svg" id="Layer_5" enable-background="new 0 0 64 64" height="512px" viewBox="0 0 64 64" width="512px" class=""><g><g><g><g><path d="m8 6v8h-2c-1.1 0-2.1-.45-2.83-1.17-.72-.73-1.17-1.73-1.17-2.83 0-2.21 1.79-4 4-4z" fill="#aab2bd" data-original="#AAB2BD" class="" style="fill:#0E2A47" data-old_color="#aab2bd"/></g><g><path d="m12 2v12h-4v-8-4z" fill="#ffeaa7" data-original="#FFEAA7" class="" style="fill:#FFCE00" data-old_color="#ffeaa7"/></g><g><path d="m12 34h4v28h-4z" fill="#e6e9ed" data-original="#E6E9ED" class="" style="fill:#FFFFFF" data-old_color="#e6e9ed"/></g><g><path d="m12 2h4v12h-4z" fill="#e6e9ed" data-original="#E6E9ED" class="" style="fill:#FFFFFF" data-old_color="#e6e9ed"/></g><g><path d="m50 14v-12h-34v12h20c2.209 0 4 1.791 4 4v4 8c0 2.209-1.791 4-4 4h-20v28h46v-40-8z" fill="#e6e9ed" data-original="#E6E9ED" class="" style="fill:#FFFFFF" data-old_color="#e6e9ed"/></g><g><path d="m36 6h4v4h-4z" fill="#aab2bd" data-original="#AAB2BD" class="" style="fill:#0E2A47" data-old_color="#aab2bd"/></g><g><path d="m28 6h4v4h-4z" fill="#aab2bd" data-original="#AAB2BD" class="" style="fill:#0E2A47" data-old_color="#aab2bd"/></g><g><path d="m20 6h4v4h-4z" fill="#aab2bd" data-original="#AAB2BD" class="" style="fill:#0E2A47" data-old_color="#aab2bd"/></g><g><path d="m62 14h-12v-12z" fill="#b4dd7f" data-original="#B4DD7F" class=""/></g><g><path d="m37 38h18v4h-18z" fill="#b4dd7f" data-original="#B4DD7F" class=""/></g><g><path d="m37 48h18v4h-18z" fill="#b4dd7f" data-original="#B4DD7F" class=""/></g><g><path d="m58 54v2c0 1.1-.9 2-2 2h-20c-1.1 0-2-.9-2-2v-2c0-1.1.9-2 2-2h1 18 1c1.1 0 2 .9 2 2z" fill="#fcd770" data-original="#FCD770" class="" style="fill:#C7EBFF" data-old_color="#fcd770"/></g><g><path d="m58 44v2c0 1.1-.9 2-2 2h-1-18-1c-1.1 0-2-.9-2-2v-2c0-1.1.9-2 2-2h1 18 1c1.1 0 2 .9 2 2z" fill="#fcd770" data-original="#FCD770" class="" style="fill:#C7EBFF" data-old_color="#fcd770"/></g><g><path d="m58 34v2c0 1.1-.9 2-2 2h-1-18-1c-1.1 0-2-.9-2-2v-2h2c1.48 0 2.77-.8 3.46-2h16.54c1.1 0 2 .9 2 2z" fill="#fcd770" data-original="#FCD770" class="" style="fill:#C7EBFF" data-old_color="#fcd770"/></g><g><path d="m16 14h20c2.21 0 4 1.79 4 4v4 8c0 .73-.2 1.41-.54 2-.69 1.2-1.98 2-3.46 2h-2-18-4-4-2c-2.21 0-4-1.79-4-4v-20c0 1.1.45 2.1 1.17 2.83.73.72 1.73 1.17 2.83 1.17h2 4z" fill="#ff826e" data-original="#FF826E" class="" style="fill:#00AF80" data-old_color="#ff826e"/></g></g><g><path d="m50.414 1h-43.414v4h-1c-2.757 0-5 2.243-5 5v20c0 2.757 2.243 5 5 5h1v28h56v-49.414zm.586 3.414 8.586 8.586h-8.586zm-38 8.586v-10h2v10zm-2-10v10h-2v-10zm-5 4h1v6h-1c-1.654 0-3-1.346-3-3s1.346-3 3-3zm-3 23v-16.002c.836.628 1.875 1.002 3 1.002h30c1.654 0 3 1.346 3 3v12c0 1.654-1.346 3-3 3h-30c-1.654 0-3-1.346-3-3zm36.974 3h16.026c.551 0 1 .449 1 1v2c0 .551-.449 1-1 1h-20c-.551 0-1-.449-1-1v-1h1c1.627 0 3.061-.793 3.974-2zm16.026 20c.551 0 1 .449 1 1v2c0 .551-.449 1-1 1h-20c-.551 0-1-.449-1-1v-2c0-.551.449-1 1-1zm-18-2v-2h16v2zm-2-4c-.551 0-1-.449-1-1v-2c0-.551.449-1 1-1h20c.551 0 1 .449 1 1v2c0 .551-.449 1-1 1zm2-6v-2h16v2zm-23-6v26h-2v-26zm-6 0h2v26h-2zm8 26v-26h16v1c0 1.654 1.346 3 3 3v2c-1.654 0-3 1.346-3 3v2c0 1.654 1.346 3 3 3v2c-1.654 0-3 1.346-3 3v2c0 1.654 1.346 3 3 3h20c1.654 0 3-1.346 3-3v-2c0-1.654-1.346-3-3-3v-2c1.654 0 3-1.346 3-3v-2c0-1.654-1.346-3-3-3v-2c1.654 0 3-1.346 3-3v-2c0-1.654-1.346-3-3-3h-15.101c.066-.323.101-.658.101-1v-12c0-2.757-2.243-5-5-5h-19v-10h32v12h12v46z" data-original="#000000" class="active-path" style="fill:#0E2A47" data-old_color="#000000"/><path d="m15 20.906c0-2.154-1.752-3.906-3.906-3.906h-.188c-2.154 0-3.906 1.752-3.906 3.906 0 1.684 1.073 3.172 2.67 3.705l2.026.676c.78.26 1.303.986 1.303 1.808.001 1.05-.854 1.905-1.905 1.905h-.188c-1.051 0-1.906-.855-1.906-1.906v-1.094h-2v1.094c0 2.154 1.752 3.906 3.906 3.906h.188c2.154 0 3.906-1.752 3.906-3.906 0-1.684-1.073-3.172-2.67-3.705l-2.026-.676c-.781-.259-1.304-.986-1.304-1.807 0-1.051.855-1.906 1.906-1.906h.188c1.051 0 1.906.855 1.906 1.906v.094z" data-original="#000000" class="active-path" style="fill:#0E2A47" data-old_color="#000000"/><path d="m27 26v-4c0-2.757-2.243-5-5-5s-5 2.243-5 5v4c0 2.757 2.243 5 5 5 1.017 0 1.962-.309 2.753-.833l1.54 1.54 1.414-1.414-1.54-1.54c.524-.791.833-1.736.833-2.753zm-5 3c-1.654 0-3-1.346-3-3v-4c0-1.654 1.346-3 3-3s3 1.346 3 3v4c0 1.654-1.346 3-3 3z" data-original="#000000" class="active-path" style="fill:#0E2A47" data-old_color="#000000"/><path d="m31 17h-2v14h6v-2h-4z" data-original="#000000" class="active-path" style="fill:#0E2A47" data-old_color="#000000"/><path d="m19 11h6v-6h-6zm2-4h2v2h-2z" data-original="#000000" class="active-path" style="fill:#0E2A47" data-old_color="#000000"/><path d="m27 11h6v-6h-6zm2-4h2v2h-2z" data-original="#000000" class="active-path" style="fill:#0E2A47" data-old_color="#000000"/><path d="m35 11h6v-6h-6zm2-4h2v2h-2z" data-original="#000000" class="active-path" style="fill:#0E2A47" data-old_color="#000000"/><path d="m19 37h2v2h-2z" data-original="#000000" class="active-path" style="fill:#0E2A47" data-old_color="#000000"/><path d="m23 37h8v2h-8z" data-original="#000000" class="active-path" style="fill:#0E2A47" data-old_color="#000000"/><path d="m19 41h12v2h-12z" data-original="#000000" class="active-path" style="fill:#0E2A47" data-old_color="#000000"/><path d="m19 45h12v2h-12z" data-original="#000000" class="active-path" style="fill:#0E2A47" data-old_color="#000000"/><path d="m19 49h12v2h-12z" data-original="#000000" class="active-path" style="fill:#0E2A47" data-old_color="#000000"/><path d="m19 53h2v2h-2z" data-original="#000000" class="active-path" style="fill:#0E2A47" data-old_color="#000000"/><path d="m23 53h8v2h-8z" data-original="#000000" class="active-path" style="fill:#0E2A47" data-old_color="#000000"/><path d="m19 57h12v2h-12z" data-original="#000000" class="active-path" style="fill:#0E2A47" data-old_color="#000000"/><path d="m43 17h16v2h-16z" data-original="#000000" class="active-path" style="fill:#0E2A47" data-old_color="#000000"/><path d="m43 21h16v2h-16z" data-original="#000000" class="active-path" style="fill:#0E2A47" data-old_color="#000000"/><path d="m43 25h15v2h-15z" data-original="#000000" class="active-path" style="fill:#0E2A47" data-old_color="#000000"/></g></g></g> </svg>
