<?xml version="1.0"?>
<svg xmlns="http://www.w3.org/2000/svg" height="512px" viewBox="-20 0 511 512" width="512px" class=""><g><path d="m352.5 384v64l-53.332031 53.332031h-277.335938c-5.886719 0-10.664062-4.777343-10.664062-10.664062v-469.335938c0-5.886719 4.777343-10.664062 10.664062-10.664062h320c5.890625 0 10.667969 4.777343 10.667969 10.664062v85.335938" fill="#7ecffb" data-original="#7ECFFB" class="active-path" style="fill:#1273EB" data-old_color="#7ecffb"/><path d="m352.5 416h-85.332031v85.332031h32l53.332031-53.332031zm0 0" fill="#bae4fb" data-original="#BAE4FB" class=""/><path d="m75.167969 96h213.332031v128h-213.332031zm0 0" fill="#bae4fb" data-original="#BAE4FB" class=""/><path d="m363.167969 106.667969v-85.335938c0-11.765625-9.570313-21.332031-21.335938-21.332031h-320c-11.765625 0-21.332031 9.566406-21.332031 21.332031v469.335938c0 11.765625 9.566406 21.332031 21.332031 21.332031h277.335938c2.824219 0 5.546875-1.121094 7.539062-3.125l53.335938-53.332031c2.003906-1.996094 3.125-4.707031 3.125-7.542969v-64h-21.335938v21.332031h-74.664062c-5.890625 0-10.667969 4.769531-10.667969 10.667969v74.667969h-234.667969v-469.335938h320v85.335938zm-85.335938 320h64v16.917969l-47.082031 47.082031h-16.917969zm0 0" data-original="#000000" class=""/><path d="m256.5 234.667969h-181.332031c-5.890625 0-10.667969-4.769531-10.667969-10.667969v-128c0-5.898438 4.777344-10.667969 10.667969-10.667969h213.332031c5.886719 0 10.667969 4.769531 10.667969 10.667969v53.332031h-21.335938v-42.664062h-192v106.664062h170.667969zm0 0" data-original="#000000" class=""/><path d="m64.5 277.332031h106.667969v21.335938h-106.667969zm0 0" data-original="#000000" class=""/><path d="m192.5 277.332031h21.332031v21.335938h-21.332031zm0 0" data-original="#000000" class=""/><path d="m64.5 341.332031h64v21.335938h-64zm0 0" data-original="#000000" class=""/><path d="m149.832031 341.332031h106.667969v21.335938h-106.667969zm0 0" data-original="#000000" class=""/><path d="m64.5 405.332031h106.667969v21.335938h-106.667969zm0 0" data-original="#000000" class=""/><path d="m192.5 405.332031h42.667969v21.335938h-42.667969zm0 0" data-original="#000000" class=""/><path d="m373.832031 352-61.664062-48.03125c-14.78125-12-23.453125-29.953125-23.65625-48.992188l-.011719-73.644531 85.332031-42.664062 85.335938 42.664062.746093 71.671875c.203126 19.101563-8.128906 37.289063-22.722656 49.609375zm0 0" fill="#fdd55b" data-original="#FDD55B" class="" style="fill:#69E781" data-old_color="#fdd55b"/><path d="m373.832031 362.667969c-2.3125 0-4.628906-.746094-6.546875-2.253907l-61.664062-48.03125c-17.472656-14.175781-27.542969-35.007812-27.777344-57.300781v-73.75c0-4.042969 2.28125-7.730469 5.898438-9.546875l85.332031-42.664062c3-1.503906 6.539062-1.503906 9.546875 0l85.335937 42.664062c3.574219 1.792969 5.855469 5.429688 5.898438 9.429688l.746093 71.671875c.234376 22.355469-9.429687 43.453125-26.507812 57.875l-63.679688 49.652343c-1.953124 1.507813-4.265624 2.253907-6.582031 2.253907zm-74.664062-174.742188v67.039063c.167969 15.796875 7.359375 30.6875 19.722656 40.714844l54.941406 42.796874 56.800781-44.277343c11.882813-10.039063 18.785157-25.109375 18.613282-41.089844l-.683594-65.152344-74.730469-37.363281zm0 0" data-original="#000000" class=""/><path d="m373.832031 277.332031c-2.089843 0-4.148437-.617187-5.917969-1.789062l-32-21.335938 11.828126-17.75 22.6875 15.128907 26.242187-43.746094 18.292969 10.976562-32 53.332032c-1.503906 2.496093-3.957032 4.277343-6.804688 4.917968-.757812.179688-1.546875.265625-2.328125.265625zm0 0" data-original="#000000" class=""/></g> </svg>
