<?xml version="1.0"?>
<svg xmlns="http://www.w3.org/2000/svg" height="512px" viewBox="0 0 64 64" width="512px" class=""><g><g id="Layer_4" data-name="Layer 4"><circle cx="51" cy="13" fill="#e47c6f" r="11" data-original="#E47C6F" class="" data-old_color="#e47c6f" style="fill:#6FE49B"/><path d="m59 8a17.15 17.15 0 0 0 -.24-2.8 11 11 0 1 0 -12.42 17.8c7.06-.53 12.66-7 12.66-15z" fill="#e9968c" data-original="#E9968C" class="active-path" data-old_color="#e9968c" style="fill:#8CE999"/><rect fill="#f7d881" height="34" rx="4" width="38" x="24" y="28" data-original="#F7D881" class=""/><path d="m28 28v-10a10 10 0 0 0 -10-10 10 10 0 0 0 -10 10v10h-6v-10a16 16 0 0 1 16-16 16 16 0 0 1 16 16v10z" fill="#88929f" data-original="#88929F"/><path d="m22 36h12v18h-12z" fill="#f5b95b" data-original="#F5B95B"/><path d="m45 46.55v-8.55a2 2 0 0 0 -2-2 2 2 0 0 0 -2 2v8.55a4 4 0 1 0 4 0z" fill="#c1c8d1" data-original="#C1C8D1" class=""/><path d="m49 5h4v8h-4z" fill="#fff" data-original="#FFF"/><path d="m49 16h4v4h-4z" fill="#fff" data-original="#FFF"/><path d="m58 27h-23v-9a17 17 0 0 0 -34 0v10a1 1 0 0 0 1 1h6a1 1 0 0 0 1-1v-10a9 9 0 0 1 18 0v9.1a5 5 0 0 0 -4 4.9v3h-1a1 1 0 0 0 -1 1v18a1 1 0 0 0 1 1h1v3a5 5 0 0 0 5 5h30a5 5 0 0 0 5-5v-26a5 5 0 0 0 -5-5zm-40-20a11 11 0 0 0 -11 11v9h-4v-9a15 15 0 0 1 30 0v9h-4v-9a11 11 0 0 0 -11-11zm15 30v4h-10v-4zm-10 16v-4h10v4zm10-6h-10v-4h10zm28 11a3 3 0 0 1 -3 3h-30a3 3 0 0 1 -3-3v-3h9a1 1 0 0 0 1-1v-18a1 1 0 0 0 -1-1h-9v-3a3 3 0 0 1 3-3h30a3 3 0 0 1 3 3z" data-original="#000000" class="" style="fill:#000000"/><path d="m46 46v-8a3 3 0 0 0 -6 0v8a5 5 0 0 0 1.81 8.84 5.35 5.35 0 0 0 1.19.16 5 5 0 0 0 3-9zm-1.14 6.33a3 3 0 1 1 -3.36-4.93 1 1 0 0 0 .5-.87v-8.53a1 1 0 0 1 2 0v8.55a1 1 0 0 0 .5.87 3 3 0 0 1 .36 4.93z" data-original="#000000" class="" style="fill:#000000"/><path d="m49 14h4a1 1 0 0 0 1-1v-8a1 1 0 0 0 -1-1h-4a1 1 0 0 0 -1 1v8a1 1 0 0 0 1 1zm1-8h2v6h-2z" data-original="#000000" class="" style="fill:#000000"/><path d="m49 21h4a1 1 0 0 0 1-1v-4a1 1 0 0 0 -1-1h-4a1 1 0 0 0 -1 1v4a1 1 0 0 0 1 1zm1-4h2v2h-2z" data-original="#000000" class="" style="fill:#000000"/><path d="m51 25a12 12 0 1 0 -12-12 12 12 0 0 0 12 12zm0-22a10 10 0 1 1 -10 10 10 10 0 0 1 10-10z" data-original="#000000" class="" style="fill:#000000"/></g></g> </svg>
