<?xml version="1.0"?>
<svg xmlns="http://www.w3.org/2000/svg" id="Flat" height="512px" viewBox="0 0 512 512" width="512px" class=""><g><rect fill="#2d80b3" height="224" rx="32" width="320" x="24" y="216" data-original="#2D80B3" class=""/><path d="m344 408a32.00409 32.00409 0 0 1 -32 32h-256a32.004 32.004 0 0 1 -32-32z" fill="#396795" data-original="#396795"/><path d="m320 408v-160a8 8 0 0 0 -8-8h-256a8 8 0 0 0 -8 8v160z" fill="#a2c32a" data-original="#A2C32A" class="active-path" style="fill:#BBF4AA" data-old_color="#a2c32a"/><path d="m160 440v16a32 32 0 0 1 -32 32h112a32 32 0 0 1 -32-32v-16" fill="#2d80b3" data-original="#2D80B3" class=""/><path d="m136 376h96a24 24 0 0 0 24-24v-136l-48-48h-72a24 24 0 0 0 -24 24v160a24 24 0 0 0 24 24z" fill="#eedc9a" data-original="#EEDC9A" class="" style="fill:#E3E9ED" data-old_color="#eedc9a"/><g fill="#eebe33"><path d="m208 168v48h48z" data-original="#EEBE33" class="" style="fill:#5C5B5B" data-old_color="#EEBE33"/><path d="m136 192h32v16h-32z" data-original="#EEBE33" class="" style="fill:#5C5B5B" data-old_color="#EEBE33"/><path d="m168 232h32v16h-32z" data-original="#EEBE33" class="" style="fill:#5C5B5B" data-old_color="#EEBE33"/><path d="m216 232h16v16h-16z" data-original="#EEBE33" class="" style="fill:#5C5B5B" data-old_color="#EEBE33"/><path d="m200 264h32v16h-32z" data-original="#EEBE33" class="" style="fill:#5C5B5B" data-old_color="#EEBE33"/><path d="m136 264h48v16h-48z" data-original="#EEBE33" class="" style="fill:#5C5B5B" data-old_color="#EEBE33"/><path d="m136 296h32v16h-32z" data-original="#EEBE33" class="" style="fill:#5C5B5B" data-old_color="#EEBE33"/><path d="m184 296h32v16h-32z" data-original="#EEBE33" class="" style="fill:#5C5B5B" data-old_color="#EEBE33"/><path d="m192 328h32v16h-32z" data-original="#EEBE33" class="" style="fill:#5C5B5B" data-old_color="#EEBE33"/></g><path d="m488 128a40.00174 40.00174 0 0 1 -40 40h-152a40.001 40.001 0 0 1 -6.43994-79.48 24.08433 24.08433 0 0 1 -1.56006-8.52 23.54219 23.54219 0 0 1 1.24-7.59009 23.98558 23.98558 0 0 1 36.9099-11.78991 64.00158 64.00158 0 0 1 121.8501 27.38 39.97432 39.97432 0 0 1 40 40z" fill="#8acce7" data-original="#8ACCE7"/><path d="m463.93 91.30005a79.37214 79.37214 0 0 1 -5.75 26.7l-14.83-6a63.80636 63.80636 0 0 0 4.65-24.00005 39.89412 39.89412 0 0 1 15.93 3.30005z" fill="#379ec3" data-original="#379EC3"/><path d="m318.40991 76.66992-6.40991 14.66008a39.688 39.688 0 0 0 -16-3.33 40.25028 40.25028 0 0 0 -6.43994.52 24.08433 24.08433 0 0 1 -1.56006-8.52 23.54219 23.54219 0 0 1 1.24-7.59009 56.06923 56.06923 0 0 1 29.16992 4.26z" fill="#379ec3" data-original="#379EC3"/><path d="m224 72v16h-40v16h-16v-24a7.99782 7.99782 0 0 1 8-8z" fill="#e44042" data-original="#E44042"/><path d="m224 72v16h-22.63l8-8-8-8z" fill="#d1393b" data-original="#D1393B" class="" style="fill:#D1393B"/><path d="m213.65723 109.65674-11.31446-11.31348 18.34375-18.34326-18.34375-18.34326 11.31446-11.31348 24 24a8 8 0 0 1 0 11.31348z" fill="#e44042" data-original="#E44042"/><path d="m168 136h16v16h-16z" fill="#e44042" data-original="#E44042"/><path d="m168 112h16v16h-16z" fill="#e44042" data-original="#E44042"/></g> </svg>
