<?xml version="1.0"?>
<svg xmlns="http://www.w3.org/2000/svg" id="Layer_3" enable-background="new 0 0 64 64" height="512px" viewBox="0 0 64 64" width="512px" class=""><g><g><g><path d="m26 2v40h8c5.523 0 10 4.477 10 10h18v-50z" fill="#c6c7c2" data-original="#C6C7C2" class="active-path" data-old_color="#c6c7c2" style="fill:#E7E8E7"/></g><g><path d="m26 42h8c2.157 0 4.149.69 5.782 1.851 10.143-5.686 17.218-18.474 17.218-33.351 0-2.928-.282-5.771-.799-8.5h-30.201z" fill="#e8e9e7" data-original="#E8E9E7" class="" data-old_color="#e8e9e7" style="fill:#FFFFFF"/></g><g><path d="m30 6h16v24h-16z" fill="#b9e4f9" data-original="#B9E4F9" class=""/></g><g><path d="m30 27.056c7.531-2.658 13-10.632 13-20.056 0-.338-.031-.666-.044-1h-12.956z" fill="#e3f4fd" data-original="#E3F4FD" class=""/></g><g><g><path d="m12 42h10v-22h-20v32c0-5.523 4.477-10 10-10z" fill="#e0747c" data-original="#E0747C" class=""/></g></g><g><path d="m2 39.802c8.529-1.31 15.538-9.231 18.027-19.802h-18.027z" fill="#e69096" data-original="#E69096" class=""/></g><g><path d="m6 8h12v12h-12z" fill="#8892a0" data-original="#8892A0" class="" style="fill:#8892A0"/></g><g><path d="m2 52c0-5.523 4.477-10 10-10h22c5.523 0 10 4.477 10 10 0 5.523-4.477 10-10 10h-22c-5.523 0-10-4.477-10-10z" fill="#8892a0" data-original="#8892A0" class="" style="fill:#8892A0"/></g><g><path d="m34 58h-22c-3.314 0-6-2.686-6-6 0-3.314 2.686-6 6-6h22c3.314 0 6 2.686 6 6 0 3.314-2.686 6-6 6z" fill="#ebf7fe" data-original="#EBF7FE" class=""/></g><g><path d="m12 46c-3.314 0-6 2.686-6 6 0 1.242.377 2.395 1.023 3.352 1.762.419 3.593.648 5.477.648 7.927 0 14.971-3.922 19.449-10z" fill="#fff" data-original="#FFF"/></g><g><circle cx="12" cy="52" fill="#8892a0" r="2" data-original="#8892A0" class="" style="fill:#8892A0"/></g><g><path d="m3 52h-2v-32c0-.553.448-1 1-1h20c.552 0 1 .447 1 1v22h-2v-21h-18z" data-original="#000000" class="" style="fill:#0E2A47" data-old_color="#000000"/></g><g><path d="m34 63h-22c-6.065 0-11-4.935-11-11s4.935-11 11-11h22c6.065 0 11 4.935 11 11s-4.935 11-11 11zm-22-20c-4.962 0-9 4.037-9 9s4.038 9 9 9h22c4.962 0 9-4.037 9-9s-4.038-9-9-9z" data-original="#000000" class="" style="fill:#0E2A47" data-old_color="#000000"/></g><g><path d="m19 20h-2v-11h-10v11h-2v-12c0-.553.448-1 1-1h12c.552 0 1 .447 1 1z" data-original="#000000" class="" style="fill:#0E2A47" data-old_color="#000000"/></g><g><path d="m11.151 20.759-1.302-1.518 2.554-2.189-3.003-2.252c-.252-.189-.4-.486-.4-.8s.148-.611.4-.8l2.934-2.2-2.934-2.2 1.2-1.6 4 3c.252.188.4.485.4.8s-.148.611-.4.8l-2.933 2.2 2.934 2.2c.243.182.39.464.399.768.01.303-.119.594-.349.791z" data-original="#000000" class="" style="fill:#0E2A47" data-old_color="#000000"/></g><g><path d="m34 59h-22c-3.86 0-7-3.141-7-7s3.14-7 7-7h22c3.86 0 7 3.141 7 7s-3.14 7-7 7zm-22-12c-2.757 0-5 2.243-5 5s2.243 5 5 5h22c2.757 0 5-2.243 5-5s-2.243-5-5-5z" data-original="#000000" class="" style="fill:#0E2A47" data-old_color="#000000"/></g><g><path d="m12 55c-1.654 0-3-1.346-3-3s1.346-3 3-3 3 1.346 3 3-1.346 3-3 3zm0-4c-.551 0-1 .448-1 1s.449 1 1 1 1-.448 1-1-.449-1-1-1z" data-original="#000000" class="" style="fill:#0E2A47" data-old_color="#000000"/></g><g><path d="m17 49h18v2h-18z" data-original="#000000" class="" style="fill:#0E2A47" data-old_color="#000000"/></g><g><path d="m17 53h18v2h-18z" data-original="#000000" class="" style="fill:#0E2A47" data-old_color="#000000"/></g><g><path d="m62 53h-18v-2h17v-48h-34v39h-2v-40c0-.553.448-1 1-1h36c.552 0 1 .447 1 1v50c0 .553-.448 1-1 1z" data-original="#000000" class="" style="fill:#0E2A47" data-old_color="#000000"/></g><g><path d="m46 31h-16c-.552 0-1-.447-1-1v-24c0-.553.448-1 1-1h16c.552 0 1 .447 1 1v24c0 .553-.448 1-1 1zm-15-2h14v-22h-14z" data-original="#000000" class="" style="fill:#0E2A47" data-old_color="#000000"/></g><g><path d="m49 5h10v2h-10z" data-original="#000000" class="" style="fill:#0E2A47" data-old_color="#000000"/></g><g><path d="m49 9h10v2h-10z" data-original="#000000" class="" style="fill:#0E2A47" data-old_color="#000000"/></g><g><path d="m49 13h10v2h-10z" data-original="#000000" class="" style="fill:#0E2A47" data-old_color="#000000"/></g><g><path d="m49 17h10v2h-10z" data-original="#000000" class="" style="fill:#0E2A47" data-old_color="#000000"/></g><g><path d="m49 21h10v2h-10z" data-original="#000000" class="" style="fill:#0E2A47" data-old_color="#000000"/></g><g><path d="m49 25h10v2h-10z" data-original="#000000" class="" style="fill:#0E2A47" data-old_color="#000000"/></g><g><path d="m49 29h10v2h-10z" data-original="#000000" class="" style="fill:#0E2A47" data-old_color="#000000"/></g><g><path d="m29 33h30v2h-30z" data-original="#000000" class="" style="fill:#0E2A47" data-old_color="#000000"/></g><g><path d="m29 37h30v2h-30z" data-original="#000000" class="" style="fill:#0E2A47" data-old_color="#000000"/></g><g><path d="m43 41h16v2h-16z" data-original="#000000" class="" style="fill:#0E2A47" data-old_color="#000000"/></g><g><path d="m46 45h13v2h-13z" data-original="#000000" class="" style="fill:#0E2A47" data-old_color="#000000"/></g></g></g> </svg>
