<?xml version="1.0"?>
<svg xmlns="http://www.w3.org/2000/svg" xmlns:xlink="http://www.w3.org/1999/xlink" version="1.1" id="Capa_1" x="0px" y="0px" viewBox="0 0 496 496" style="enable-background:new 0 0 496 496;" xml:space="preserve" width="512px" height="512px" class=""><g><g>
	<rect x="16" y="96" style="fill:#FA1C91" width="176" height="32" data-original="#FFA64D" class="active-path" data-old_color="#FFA64D"/>
	<path style="fill:#FA1C91" d="M472,496H264.648c-13.232,0-24-10.768-24-24V312c0-13.232,10.768-24,24-24H472   c13.232,0,24,10.768,24,24v160C496,485.232,485.232,496,472,496z" data-original="#FFA64D" class="active-path" data-old_color="#FFA64D"/>
</g><g>
	<path style="fill:#FFFFFF" d="M192,0H16v80H0v312c0,57.344,46.656,104,104,104s104-46.656,104-104V80h-16V0z M32,16h144v64H32V16z    M104,480c-48.52,0-88-39.48-88-88V128h144v-16H16V96h176v16h-16v16h16v264C192,440.52,152.52,480,104,480z" data-original="#333333" class="" data-old_color="#333333"/>
	<path style="fill:#FFFFFF" d="M128,256h16v32c0,4.416-3.592,8-8,8h-24v-89.136c13.76-3.576,24-16,24-30.864   c0-17.648-14.352-32-32-32s-32,14.352-32,32c0,14.864,10.24,27.288,24,30.864V336H72c-4.408,0-8-3.584-8-8v-32h16v-48H32v48h16v32   c0,13.232,10.768,24,24,24h24v16.808c-18.232,3.72-32,19.88-32,39.192c0,22.056,17.944,40,40,40s40-17.944,40-40   c0-19.312-13.768-35.472-32-39.192V312h24c13.232,0,24-10.768,24-24v-32h16v-48h-48V256z M48,264h16v16H48V264z M88,176   c0-8.824,7.176-16,16-16s16,7.176,16,16s-7.176,16-16,16S88,184.824,88,176z M128,408c0,13.232-10.768,24-24,24s-24-10.768-24-24   s10.768-24,24-24S128,394.768,128,408z M144,224h16v16h-16V224z" data-original="#333333" class="" data-old_color="#333333"/>
	<path style="fill:#FFFFFF" d="M368.328,128c-57.168,0-103.672,46.504-103.672,103.672V288h16v-56.328   C280.648,183.336,319.984,144,368.328,144S456,183.336,456,231.672V288h16v-56.328C472,174.504,425.496,128,368.328,128z" data-original="#333333" class="" data-old_color="#333333"/>
	<path style="fill:#FFFFFF" d="M368.328,160c-39.52,0-71.672,32.152-71.672,71.672V288h16v-56.328   c0-30.696,24.976-55.672,55.672-55.672S424,200.976,424,231.672V288h16v-56.328C440,192.152,407.848,160,368.328,160z" data-original="#333333" class="" data-old_color="#333333"/>
	<path style="fill:#FFFFFF" d="M368,320c-22.056,0-40,17.944-40,40c0,12.504,6.032,24.32,16,31.832V464h48v-72.168   c9.968-7.512,16-19.328,16-31.832C408,337.944,390.056,320,368,320z M379.976,380.648L376,382.96V448h-16v-65.04l-3.976-2.312   C348.496,376.264,344,368.544,344,360c0-13.232,10.768-24,24-24s24,10.768,24,24C392,368.544,387.504,376.264,379.976,380.648z" data-original="#333333" class="" data-old_color="#333333"/>
	<rect x="48" y="32" style="fill:#FFFFFF" width="16" height="16" data-original="#333333" class="" data-old_color="#333333"/>
	<rect x="144" y="32" style="fill:#FFFFFF" width="16" height="16" data-original="#333333" class="" data-old_color="#333333"/>
</g></g> </svg>
