<?xml version="1.0"?>
<svg xmlns="http://www.w3.org/2000/svg" id="Layer_3" enable-background="new 0 0 64 64" height="512px" viewBox="0 0 64 64" width="512px" class=""><g><g><g><path d="m4 2h40v56h-40z" fill="#aeb3b7" data-original="#AEB3B7" class="" data-old_color="#aeb3b7" style="fill:#8AA6BD"/></g><g><path d="m4 50.986c19.375-.299 35-17.857 35-39.486 0-3.276-.365-6.456-1.041-9.5h-33.959z" fill="#ced1d4" data-original="#CED1D4" class="" data-old_color="#ced1d4" style="fill:#E1EDF9"/></g><g><path d="m8 28h32v14h-32z" fill="#ebf7fe" data-original="#EBF7FE" class=""/></g><g><path d="m8 28v14h18.042c4.117-3.769 7.454-8.549 9.711-14z" fill="#f7fcff" data-original="#F7FCFF" class=""/></g><g><path d="m15 6h18v18h-18z" fill="#ebf7fe" data-original="#EBF7FE" class=""/></g><g><path d="m19 24v-3c0-2.761 2.239-5 5-5 2.761 0 5 2.239 5 5v3z" fill="#976947" data-original="#976947" class="" style="fill:#FFB229" data-old_color="#976947"/></g><g><path d="m19 21v3h10v-3c0-.343-.035-.677-.101-1h-9.798c-.066.323-.101.657-.101 1z" fill="#838689" data-original="#838689"/></g><g><circle cx="24" cy="13" fill="#976947" r="3" data-original="#976947" class="" style="fill:#FFB229" data-old_color="#976947"/></g><g><path d="m60 32c0 8.746-4.371 16.914-11.649 21.766l-.351.234-.351-.234c-7.278-4.852-11.649-13.02-11.649-21.766l12-6z" fill="#8892a0" data-original="#8892A0" class="" data-old_color="#8892a0" style="fill:#6C487B"/></g><g><g><path d="m48 26v-20h-4v22z" fill="#575a5c" data-original="#575A5C" class=""/></g><g><path d="m44 50.823v7.177h-36v4h40v-8l-.351-.234c-1.316-.877-2.532-1.865-3.649-2.943z" fill="#575a5c" data-original="#575A5C" class=""/></g></g><g><path d="m36 32c0 4.605 1.222 9.043 3.431 12.928 7.613-.721 13.569-7.127 13.569-14.928 0-.52-.027-1.033-.078-1.539l-4.922-2.461z" fill="#b8bec6" data-original="#B8BEC6" class="" data-old_color="#b8bec6" style="fill:#BFB8C6"/></g><g><circle cx="48" cy="39" fill="#f7d881" r="6" data-original="#F7D881" class="" data-old_color="#f7d881" style="fill:#81F7B5"/></g><g><path d="m52.223 34.74c-1.084-1.075-2.575-1.74-4.223-1.74-3.314 0-6 2.686-6 6 0 1.873.859 3.545 2.204 4.645 3.768-1.716 6.698-4.939 8.019-8.905z" fill="#fcefcd" data-original="#FCEFCD" class="active-path" data-old_color="#fcefcd" style="fill:#CDFCD0"/></g><g><path d="m44 59h-40c-.553 0-1-.447-1-1v-56c0-.552.447-1 1-1h40c.553 0 1 .448 1 1v26h-2v-25h-38v54h38v-6.172h2v7.172c0 .553-.447 1-1 1z" data-original="#000000" class=""/></g><g><path d="m48 63h-40c-.553 0-1-.447-1-1v-4h2v3h38v-7h2v8c0 .553-.447 1-1 1z" data-original="#000000" class=""/></g><g><path d="m49 26h-2v-19h-3v-2h4c.553 0 1 .448 1 1z" data-original="#000000" class=""/></g><g><path d="m33 25h-18c-.553 0-1-.448-1-1v-18c0-.552.447-1 1-1h18c.553 0 1 .448 1 1v18c0 .552-.447 1-1 1zm-17-2h16v-16h-16z" data-original="#000000" class=""/></g><g><path d="m24 17c-2.206 0-4-1.794-4-4s1.794-4 4-4 4 1.794 4 4-1.794 4-4 4zm0-6c-1.103 0-2 .897-2 2s.897 2 2 2 2-.897 2-2-.897-2-2-2z" data-original="#000000" class=""/></g><g><path d="m30 24h-2v-3c0-2.206-1.794-4-4-4s-4 1.794-4 4v3h-2v-3c0-3.309 2.691-6 6-6s6 2.691 6 6z" data-original="#000000" class=""/></g><g><path d="m19 19h10v2h-10z" data-original="#000000" class=""/></g><g><path d="m38 43h-30c-.553 0-1-.447-1-1v-14c0-.552.447-1 1-1h32c.553 0 1 .448 1 1v2h-2v-1h-30v12h29z" data-original="#000000" class=""/></g><g><path d="m7 45h33v2h-33z" data-original="#000000" class=""/></g><g><path d="m9 49h29v2h-29z" data-original="#000000" class=""/></g><g><path d="m7 53h33v2h-33z" data-original="#000000" class=""/></g><g><path d="m48 55c-.193 0-.387-.056-.555-.168l-.352-.234c-7.572-5.049-12.093-13.496-12.093-22.598 0-.379.214-.725.553-.895l12-6c.281-.141.613-.141.895 0l12 6c.338.17.552.516.552.895 0 9.102-4.521 17.549-12.094 22.598l-.352.234c-.167.112-.361.168-.554.168zm-10.992-22.386c.196 8.114 4.27 15.606 10.992 20.183 6.723-4.576 10.796-12.068 10.992-20.183l-10.992-5.496z" data-original="#000000" class=""/></g><g><path d="m48 46c-3.859 0-7-3.141-7-7s3.141-7 7-7 7 3.141 7 7-3.141 7-7 7zm0-12c-2.757 0-5 2.243-5 5s2.243 5 5 5 5-2.243 5-5-2.243-5-5-5z" data-original="#000000" class=""/></g></g></g> </svg>
